<svg viewBox="0 0 157.02 27.59" xmlns="http://www.w3.org/2000/svg"><g fill="#febc17"><path d="m14.51 0-3.42 10.53c-3.66 0-7.61 0-11.09 0l9 6.51c-1.12 3.47-2.35 7.24-3.42 10.54 2.87-2.1 5.92-4.3 9-6.51l9 6.51c-1.12-3.41-2.26-6.95-3.42-10.54l9-6.51h-11.22"/><path d="m46.51 0-3.42 10.53c-3.66 0-7.61 0-11.09 0l9 6.51c-1.12 3.47-2.35 7.24-3.42 10.54 2.87-2.1 5.92-4.3 9-6.51l9 6.51c-1.12-3.41-2.26-6.95-3.42-10.54l9-6.51h-11.22"/><path d="m78.51 0-3.42 10.53c-3.66 0-7.61 0-11.09 0l9 6.51c-1.12 3.47-2.35 7.24-3.42 10.54 2.87-2.1 5.92-4.3 9-6.51l9 6.51c-1.12-3.41-2.26-6.95-3.42-10.54l9-6.51h-11.22"/></g><g fill="#dadce0"><path d="m142.51 0-3.42 10.53c-3.66 0-7.61 0-11.09 0l9 6.51c-1.12 3.47-2.35 7.24-3.42 10.54 2.87-2.1 5.92-4.3 9-6.51l9 6.51c-1.12-3.41-2.26-6.95-3.42-10.54l9-6.51h-11.22"/><path d="m110.51 0-3.42 10.53c-3.66 0-7.61 0-11.09 0l9 6.51c-1.12 3.47-2.35 7.24-3.42 10.54 2.87-2.1 5.92-4.3 9-6.51l9 6.51c-1.12-3.41-2.26-6.95-3.42-10.54l9-6.51h-11.22"/></g></svg>